<svg>
    <symbol id="icon-arrow" viewBox="0 0 33 20" fill="inherit" xmlns="http://www.w3.org/2000/svg">
        <path d="M33 3.5L16.5 20L0 3.5L2.92875 0.571249L16.5 14.1425L30.0713 0.571249L33 3.5Z"/>
    </symbol>

    <symbol id="icon-book" viewBox="0 0 21 26" fill="inherit" xmlns="http://www.w3.org/2000/svg">
        <path d="M2.49088 16.672V16.6906L2.50751 16.6823C2.79856 16.5368 3.09996 16.4329 3.41173 16.3705C3.72376 16.3081 4.04622 16.2769 4.37915 16.2769H5.00474H5.01623V16.2654V2.50237V2.49088H5.00474H4.37915C3.85481 2.49088 3.40875 2.67453 3.04164 3.04164C2.67453 3.40875 2.49088 3.85481 2.49088 4.37915V16.672ZM7.49562 16.2654V16.2769H7.50711H17.5166H17.5281V16.2654V2.50237V2.49088H17.5166H7.50711H7.49562V2.50237V16.2654ZM16.0465 22.5328H16.0639L16.057 22.5168C15.9321 22.2255 15.8333 21.9289 15.7605 21.6272C15.6877 21.3258 15.6513 20.9983 15.6513 20.6446C15.6513 20.3116 15.6825 19.9892 15.7449 19.6771C15.8073 19.3654 15.9112 19.064 16.0567 18.7729L16.065 18.7563H16.0465H4.37915C3.83409 18.7563 3.3827 18.9399 3.02588 19.3072C2.66924 19.6743 2.49088 20.1203 2.49088 20.6446C2.49088 21.1895 2.66916 21.6409 3.026 21.9977C3.38284 22.3546 3.8342 22.5328 4.37915 22.5328H16.0465ZM4.37915 25.0122C3.17272 25.0122 2.14341 24.5859 1.29059 23.7331C0.437769 22.8803 0.0114905 21.851 0.0114905 20.6446V4.37915C0.0114905 3.17272 0.437769 2.14341 1.29059 1.29059C2.14341 0.437769 3.17272 0.0114905 4.37915 0.0114905H20.0075V18.7563C19.4881 18.759 19.0459 18.9426 18.6815 19.3071C18.3144 19.6742 18.1307 20.1202 18.1307 20.6446C18.1307 21.1689 18.3144 21.615 18.6815 21.9821C19.0459 22.3465 19.4881 22.5301 20.0075 22.5328V25.0122H4.37915Z"/>
    </symbol>

    <symbol id="icon-grade" viewBox="0 0 28 27" fill="inherit" xmlns="http://www.w3.org/2000/svg">
        <path d="M9.50901 26.2749L7.13176 22.2711L2.62749 21.2702L3.0654 16.6408L0 13.1374L3.0654 9.63413L2.62749 5.00474L7.13176 4.00379L9.50901 0L13.763 1.81422L18.0171 0L20.3943 4.00379L24.8986 5.00474L24.4607 9.63413L27.5261 13.1374L24.4607 16.6408L24.8986 21.2702L20.3943 22.2711L18.0171 26.2749L13.763 24.4607L9.50901 26.2749ZM10.5725 23.0844L13.763 21.7081L17.0161 23.0844L18.7678 20.0815L22.2085 19.2683L21.8957 15.7649L24.2104 13.1374L21.8957 10.4474L22.2085 6.94408L18.7678 6.19337L16.9536 3.19052L13.763 4.56683L10.51 3.19052L8.7583 6.19337L5.31754 6.94408L5.63033 10.4474L3.31564 13.1374L5.63033 15.7649L5.31754 19.3308L8.7583 20.0815L10.5725 23.0844ZM12.4493 17.5792L19.5185 10.51L17.7668 8.69574L12.4493 14.0133L9.75925 11.3858L8.00759 13.1374L12.4493 17.5792Z"/>
    </symbol>

    <symbol id="icon-location" viewBox="0 0 24 28" fill="inherit" xmlns="http://www.w3.org/2000/svg">
        <path d="M11.5449 13.765C12.3386 13.765 13.018 13.4955 13.5833 12.9563C14.1485 12.4172 14.4311 11.7691 14.4311 11.012C14.4311 10.2549 14.1485 9.60685 13.5833 9.06771C13.018 8.52858 12.3386 8.25902 11.5449 8.25902C10.7512 8.25902 10.0717 8.52858 9.50648 9.06771C8.94126 9.60685 8.65865 10.2549 8.65865 11.012C8.65865 11.7691 8.94126 12.4172 9.50648 12.9563C10.0717 13.4955 10.7512 13.765 11.5449 13.765ZM11.5449 23.8823C14.4792 21.3129 16.6559 18.9785 18.0749 16.8794C19.494 14.7802 20.2035 12.9162 20.2035 11.2873C20.2035 8.78668 19.3677 6.73913 17.6961 5.14468C16.0245 3.55023 13.9741 2.75301 11.5449 2.75301C9.11563 2.75301 7.06522 3.55023 5.39362 5.14468C3.72202 6.73913 2.88622 8.78668 2.88622 11.2873C2.88622 12.9162 3.59574 14.7802 5.0148 16.8794C6.43386 18.9785 8.61055 21.3129 11.5449 23.8823ZM11.5449 27.5301C7.67253 24.387 4.7803 21.4677 2.86818 18.7721C0.956059 16.0764 0 13.5815 0 11.2873C0 7.84607 1.1605 5.10453 3.4815 3.06272C5.8025 1.02091 8.49029 0 11.5449 0C14.5994 0 17.2872 1.02091 19.6082 3.06272C21.9292 5.10453 23.0897 7.84607 23.0897 11.2873C23.0897 13.5815 22.1337 16.0764 20.2216 18.7721C18.3094 21.4677 15.4172 24.387 11.5449 27.5301Z"/>
    </symbol>

    <symbol id="icon-mail" viewBox="0 0 28 28" fill="inherit" xmlns="http://www.w3.org/2000/svg">
        <path d="M13.765 27.5301C11.8609 27.5301 10.0714 27.1687 8.39667 26.4461C6.72192 25.7234 5.26512 24.7426 4.02627 23.5038C2.78742 22.2649 1.80666 20.8081 1.084 19.1334C0.361332 17.4586 0 15.6692 0 13.765C0 11.8609 0.361332 10.0714 1.084 8.39667C1.80666 6.72192 2.78742 5.26512 4.02627 4.02627C5.26512 2.78742 6.72192 1.80666 8.39667 1.084C10.0714 0.361332 11.8609 0 13.765 0C15.6692 0 17.4586 0.361332 19.1334 1.084C20.8081 1.80666 22.2649 2.78742 23.5038 4.02627C24.7426 5.26512 25.7234 6.72192 26.4461 8.39667C27.1687 10.0714 27.5301 11.8609 27.5301 13.765V15.761C27.5301 17.1145 27.0655 18.2673 26.1364 19.2194C25.2072 20.1715 24.0659 20.6475 22.7123 20.6475C21.9093 20.6475 21.1523 20.4755 20.4411 20.1314C19.7299 19.7872 19.1334 19.294 18.6516 18.6516C17.9863 19.3169 17.235 19.8159 16.3976 20.1486C15.5602 20.4812 14.6827 20.6475 13.765 20.6475C11.8609 20.6475 10.2377 19.9765 8.89565 18.6344C7.55356 17.2923 6.88252 15.6692 6.88252 13.765C6.88252 11.8609 7.55356 10.2377 8.89565 8.89565C10.2377 7.55356 11.8609 6.88252 13.765 6.88252C15.6692 6.88252 17.2923 7.55356 18.6344 8.89565C19.9765 10.2377 20.6475 11.8609 20.6475 13.765V15.761C20.6475 16.3574 20.8426 16.8622 21.2326 17.2751C21.6226 17.6881 22.1158 17.8945 22.7123 17.8945C23.3088 17.8945 23.802 17.6881 24.192 17.2751C24.5821 16.8622 24.7771 16.3574 24.7771 15.761V13.765C24.7771 10.6908 23.7103 8.08696 21.5767 5.95338C19.4431 3.8198 16.8392 2.75301 13.765 2.75301C10.6908 2.75301 8.08696 3.8198 5.95338 5.95338C3.8198 8.08696 2.75301 10.6908 2.75301 13.765C2.75301 16.8392 3.8198 19.4431 5.95338 21.5767C8.08696 23.7103 10.6908 24.7771 13.765 24.7771H20.6475V27.5301H13.765ZM13.765 17.8945C14.9121 17.8945 15.8871 17.4931 16.6901 16.6901C17.4931 15.8871 17.8945 14.9121 17.8945 13.765C17.8945 12.6179 17.4931 11.6429 16.6901 10.84C15.8871 10.037 14.9121 9.63552 13.765 9.63552C12.6179 9.63552 11.6429 10.037 10.84 10.84C10.037 11.6429 9.63552 12.6179 9.63552 13.765C9.63552 14.9121 10.037 15.8871 10.84 16.6901C11.6429 17.4931 12.6179 17.8945 13.765 17.8945Z"/>
    </symbol>

    <symbol id="icon-person" viewBox="0 0 28 28" fill="inherit" xmlns="http://www.w3.org/2000/svg">
        <path d="M13.765 13.765C11.8723 13.765 10.2521 13.0911 8.90425 11.7433C7.55643 10.3955 6.88252 8.77521 6.88252 6.88252C6.88252 4.98982 7.55643 3.36957 8.90425 2.02174C10.2521 0.673913 11.8723 0 13.765 0C15.6577 0 17.278 0.673913 18.6258 2.02174C19.9736 3.36957 20.6475 4.98982 20.6475 6.88252C20.6475 8.77521 19.9736 10.3955 18.6258 11.7433C17.278 13.0911 15.6577 13.765 13.765 13.765ZM0 27.5301V22.7123C0 21.7373 0.250925 20.8411 0.752775 20.0238C1.25463 19.2065 1.92137 18.5828 2.75301 18.1526C4.53099 17.2636 6.33765 16.5969 8.17299 16.1524C10.0083 15.7079 11.8723 15.4857 13.765 15.4857C15.6577 15.4857 17.5217 15.7079 19.3571 16.1524C21.1924 16.5969 22.9991 17.2636 24.7771 18.1526C25.6087 18.5828 26.2754 19.2065 26.7773 20.0238C27.2791 20.8411 27.5301 21.7373 27.5301 22.7123V27.5301H0ZM3.44126 24.0888H24.0888V22.7123C24.0888 22.3969 24.0099 22.1101 23.8522 21.852C23.6945 21.5939 23.4866 21.3932 23.2285 21.2498C21.6799 20.4755 20.117 19.8948 18.5398 19.5076C16.9625 19.1205 15.371 18.9269 13.765 18.9269C12.1591 18.9269 10.5675 19.1205 8.99029 19.5076C7.41304 19.8948 5.85014 20.4755 4.30157 21.2498C4.04348 21.3932 3.83557 21.5939 3.67784 21.852C3.52012 22.1101 3.44126 22.3969 3.44126 22.7123V24.0888ZM13.765 10.3238C14.7114 10.3238 15.5215 9.98682 16.1954 9.3129C16.8693 8.63899 17.2063 7.82886 17.2063 6.88252C17.2063 5.93617 16.8693 5.12604 16.1954 4.45213C15.5215 3.77821 14.7114 3.44126 13.765 3.44126C12.8187 3.44126 12.0086 3.77821 11.3346 4.45213C10.6607 5.12604 10.3238 5.93617 10.3238 6.88252C10.3238 7.82886 10.6607 8.63899 11.3346 9.3129C12.0086 9.98682 12.8187 10.3238 13.765 10.3238Z"/>
    </symbol>

    <symbol id="icon-phone" viewBox="0 0 24 26" fill="inherit" xmlns="http://www.w3.org/2000/svg">
        <path d="M22.6 26C19.8222 26 17.0778 25.344 14.3667 24.0319C11.6556 22.7199 9.18889 20.8602 6.96667 18.4528C4.74444 16.0454 3.02778 13.3731 1.81667 10.4361C0.605556 7.49907 0 4.52593 0 1.51667C0 1.08333 0.133333 0.722222 0.4 0.433333C0.666667 0.144444 1 0 1.4 0H6.8C7.11111 0 7.38889 0.114352 7.63333 0.343056C7.87778 0.571759 8.02222 0.842593 8.06667 1.15556L8.93333 6.21111C8.97778 6.5963 8.96667 6.9213 8.9 7.18611C8.83333 7.45093 8.71111 7.67963 8.53333 7.87222L5.3 11.4111C5.74444 12.3019 6.27222 13.1625 6.88333 13.9931C7.49444 14.8236 8.16667 15.6241 8.9 16.3944C9.58889 17.1407 10.3111 17.8329 11.0667 18.4708C11.8222 19.1088 12.6222 19.6926 13.4667 20.2222L16.6 16.8278C16.8 16.6111 17.0611 16.4486 17.3833 16.3403C17.7056 16.2319 18.0222 16.2019 18.3333 16.25L22.9333 17.2611C23.2444 17.3574 23.5 17.5319 23.7 17.7847C23.9 18.0375 24 18.3204 24 18.6333V24.4833C24 24.9167 23.8667 25.2778 23.6 25.5667C23.3333 25.8556 23 26 22.6 26ZM4.03333 8.66667L6.23333 6.28333L5.66667 2.88889H2.7C2.81111 3.87593 2.96667 4.85093 3.16667 5.81389C3.36667 6.77685 3.65556 7.72778 4.03333 8.66667ZM15.9667 21.5944C16.8333 22.0037 17.7167 22.3287 18.6167 22.5694C19.5167 22.8102 20.4222 22.9667 21.3333 23.0389V19.8611L18.2 19.175L15.9667 21.5944Z"/>
    </symbol>

    <symbol id="icon-check" fill="inherit" viewBox="0 0 16 16" xmlns="http://www.w3.org/2000/svg">
        <path d="M13.854 3.646a.5.5 0 0 1 0 .708l-7 7a.5.5 0 0 1-.708 0l-3.5-3.5a.5.5 0 1 1 .708-.708L6.5 10.293l6.646-6.647a.5.5 0 0 1 .708 0z"/>
    </symbol>

    <symbol id="icon-vk" viewBox="0 0 101 100" xmlns="http://www.w3.org/2000/svg">
        <path d="M53.7085 72.042C30.9168 72.042 17.9169 56.417 17.3752 30.417H28.7919C29.1669 49.5003 37.5834 57.5836 44.25 59.2503V30.417H55.0004V46.8752C61.5837 46.1669 68.4995 38.667 70.8329 30.417H81.5832C79.7915 40.5837 72.2915 48.0836 66.9582 51.1669C72.2915 53.6669 80.8336 60.2086 84.0836 72.042H72.2499C69.7082 64.1253 63.3754 58.0003 55.0004 57.1669V72.042H53.7085Z" />
    </symbol>

    <symbol id="icon-viber" viewBox="0 0 24 24" xmlns="http://www.w3.org/2000/svg">
        <path d="M11.4 0C9.473.028 5.333.344 3.02 2.467 1.302 4.187.696 6.7.633 9.817.57 12.933.488 18.776 6.12 20.36h.003l-.004 2.416s-.037.977.61 1.177c.777.242 1.234-.5 1.98-1.302.407-.44.972-1.084 1.397-1.58 3.85.326 6.812-.416 7.15-.525.776-.252 5.176-.816 5.892-6.657.74-6.02-.36-9.83-2.34-11.546-.596-.55-3.006-2.3-8.375-2.323 0 0-.395-.025-1.037-.017zm.058 1.693c.545-.004.88.017.88.017 4.542.02 6.717 1.388 7.222 1.846 1.675 1.435 2.53 4.868 1.906 9.897v.002c-.604 4.878-4.174 5.184-4.832 5.395-.28.09-2.882.737-6.153.524 0 0-2.436 2.94-3.197 3.704-.12.12-.26.167-.352.144-.13-.033-.166-.188-.165-.414l.02-4.018c-4.762-1.32-4.485-6.292-4.43-8.895.054-2.604.543-4.738 1.996-6.173 1.96-1.773 5.474-2.018 7.11-2.03zm.38 2.602c-.167 0-.303.135-.304.302 0 .167.133.303.3.305 1.624.01 2.946.537 4.028 1.592 1.073 1.046 1.62 2.468 1.633 4.334.002.167.14.3.307.3.166-.002.3-.138.3-.304-.014-1.984-.618-3.596-1.816-4.764-1.19-1.16-2.692-1.753-4.447-1.765zm-3.96.695c-.19-.032-.4.005-.616.117l-.01.002c-.43.247-.816.562-1.146.932-.002.004-.006.004-.008.008-.267.323-.42.638-.46.948-.008.046-.01.093-.007.14 0 .136.022.27.065.4l.013.01c.135.48.473 1.276 1.205 2.604.42.768.903 1.5 1.446 2.186.27.344.56.673.87.984l.132.132c.31.308.64.6.984.87.686.543 1.418 1.027 2.186 1.447 1.328.733 2.126 1.07 2.604 1.206l.01.014c.13.042.265.064.402.063.046.002.092 0 .138-.008.31-.036.627-.19.948-.46.004 0 .003-.002.008-.005.37-.33.683-.72.93-1.148l.003-.01c.225-.432.15-.842-.18-1.12-.004 0-.698-.58-1.037-.83-.36-.255-.73-.492-1.113-.71-.51-.285-1.032-.106-1.248.174l-.447.564c-.23.283-.657.246-.657.246-3.12-.796-3.955-3.955-3.955-3.955s-.037-.426.248-.656l.563-.448c.277-.215.456-.737.17-1.248-.217-.383-.454-.756-.71-1.115-.25-.34-.826-1.033-.83-1.035-.137-.165-.31-.265-.502-.297zm4.49.88c-.158.002-.29.124-.3.282-.01.167.115.312.282.324 1.16.085 2.017.466 2.645 1.15.63.688.93 1.524.906 2.57-.002.168.13.306.3.31.166.003.305-.13.31-.297.025-1.175-.334-2.193-1.067-2.994-.74-.81-1.777-1.253-3.05-1.346h-.024zm.463 1.63c-.16.002-.29.127-.3.287-.008.167.12.31.288.32.523.028.875.175 1.113.422.24.245.388.62.416 1.164.01.167.15.295.318.287.167-.008.295-.15.287-.317-.03-.644-.215-1.178-.58-1.557-.367-.378-.893-.574-1.52-.607h-.018z"/>
    </symbol>

    <symbol id="icon-telegram" fill="inherit" xmlns="http://www.w3.org/2000/svg" viewBox="0 0 48 48">
        <path d="M5.83,23.616c12.568-5.529,28.832-12.27,31.077-13.203c5.889-2.442,7.696-1.974,6.795,3.434 c-0.647,3.887-2.514,16.756-4.002,24.766c-0.883,4.75-2.864,5.313-5.979,3.258c-1.498-0.989-9.059-5.989-10.7-7.163 c-1.498-1.07-3.564-2.357-0.973-4.892c0.922-0.903,6.966-6.674,11.675-11.166c0.617-0.59-0.158-1.559-0.87-1.086 c-6.347,4.209-15.147,10.051-16.267,10.812c-1.692,1.149-3.317,1.676-6.234,0.838c-2.204-0.633-4.357-1.388-5.195-1.676 C1.93,26.43,2.696,24.995,5.83,23.616z"/>
    </symbol>

   <symbol id="icon-whatsApp" xmlns="http://www.w3.org/2000/svg" viewBox="0 0 39 39" fill="inherit">
        <path fill='none' d="M10.7 32.8l.6.3c2.5 1.5 5.3 2.2 8.1 2.2 8.8 0 16-7.2 16-16 0-4.2-1.7-8.3-4.7-11.3s-7-4.7-11.3-4.7c-8.8 0-16 7.2-15.9 16.1 0 3 .9 5.9 2.4 8.4l.4.6-1.6 5.9 6-1.5z"></path>
        <path d="M32.4 6.4C29 2.9 24.3 1 19.5 1 9.3 1 1.1 9.3 1.2 19.4c0 3.2.9 6.3 2.4 9.1L1 38l9.7-2.5c2.7 1.5 5.7 2.2 8.7 2.2 10.1 0 18.3-8.3 18.3-18.4 0-4.9-1.9-9.5-5.3-12.9zM19.5 34.6c-2.7 0-5.4-.7-7.7-2.1l-.6-.3-5.8 1.5L6.9 28l-.4-.6c-4.4-7.1-2.3-16.5 4.9-20.9s16.5-2.3 20.9 4.9 2.3 16.5-4.9 20.9c-2.3 1.5-5.1 2.3-7.9 2.3zm8.8-11.1l-1.1-.5s-1.6-.7-2.6-1.2c-.1 0-.2-.1-.3-.1-.3 0-.5.1-.7.2 0 0-.1.1-1.5 1.7-.1.2-.3.3-.5.3h-.1c-.1 0-.3-.1-.4-.2l-.5-.2c-1.1-.5-2.1-1.1-2.9-1.9-.2-.2-.5-.4-.7-.6-.7-.7-1.4-1.5-1.9-2.4l-.1-.2c-.1-.1-.1-.2-.2-.4 0-.2 0-.4.1-.5 0 0 .4-.5.7-.8.2-.2.3-.5.5-.7.2-.3.3-.7.2-1-.1-.5-1.3-3.2-1.6-3.8-.2-.3-.4-.4-.7-.5h-1.1c-.2 0-.4.1-.6.1l-.1.1c-.2.1-.4.3-.6.4-.2.2-.3.4-.5.6-.7.9-1.1 2-1.1 3.1 0 .8.2 1.6.5 2.3l.1.3c.9 1.9 2.1 3.6 3.7 5.1l.4.4c.3.3.6.5.8.8 2.1 1.8 4.5 3.1 7.2 3.8.3.1.7.1 1 .2h1c.5 0 1.1-.2 1.5-.4.3-.2.5-.2.7-.4l.2-.2c.2-.2.4-.3.6-.5s.4-.4.5-.6c.2-.4.3-.9.4-1.4v-.7s-.1-.1-.3-.2z"></path>
   </symbol>
</svg>
